<?xml version="1.0" encoding="utf-8"?>
<!-- Generator: Adobe Illustrator 27.5.0, SVG Export Plug-In . SVG Version: 6.00 Build 0)  -->
<svg version="1.1" xmlns="http://www.w3.org/2000/svg" xmlns:xlink="http://www.w3.org/1999/xlink" x="0px" y="0px"
	 viewBox="0 0 3710 3710" style="enable-background:new 0 0 3710 3710;" xml:space="preserve">
<g id="Background">
	<g>
		<g>
			<rect style="fill:transparent;" width="3710" height="3710"/>
		</g>
	</g>
</g>
<g id="Illustration">
	<g>
		<path style="fill:#F4F7FA;" d="M1901.843,455.642C1164.559,433.87,525.916,968.84,429.427,1670.789
			c-105.495,767.485,475.139,1458.037,1189.586,1568.639c888.652,137.571,1750.593-658.292,1673.2-1521.683
			C3233.905,1067.254,2651.307,477.772,1901.843,455.642z"/>
		<g>
			<g>
				<g>
					<path style="fill:#26264F;" d="M3147.44,2905.564l-2554.059-21.771v64.416c0,17.483,11.14,32.35,26.227,35l722.212,126.845
						c8.571,1.506,17.263,1.905,25.911,1.19l1751.954-144.624c15.641-1.291,27.755-16.204,27.755-34.167V2905.564z"/>
					<g>
						<path style="fill:#26264F;" d="M2220.582,2802.336l-1600.79,117.841c-28.645,2.108-51.936-20.298-51.936-50.052V1678.062
							c0-29.754,23.29-53.875,51.936-53.875h1600.79c23.599,0,42.68,21.804,42.68,48.702v1077.603
							C2263.262,2777.388,2244.181,2800.598,2220.582,2802.336z"/>
						<linearGradient id="SVGID_1_" gradientUnits="userSpaceOnUse" x1="593.3808" y1="2272.2505" x2="2288.7861" y2="2272.2505">
							<stop  offset="0" style="stop-color:#444B8C"/>
							<stop  offset="0.9964" style="stop-color:#26264F"/>
						</linearGradient>
						<path style="fill:url(#SVGID_1_);" d="M2246.106,2802.336L645.317,2920.176c-28.646,2.108-51.936-20.298-51.936-50.052
							V1678.062c0-29.754,23.29-53.875,51.936-53.875h1600.789c23.6,0,42.68,21.804,42.68,48.702v1077.603
							C2288.786,2777.388,2269.706,2800.598,2246.106,2802.336z"/>
						
							<linearGradient id="SVGID_00000031189847402615141800000000867749190149499036_" gradientUnits="userSpaceOnUse" x1="663.0147" y1="2261.1089" x2="2231.4519" y2="2261.1089">
							<stop  offset="0" style="stop-color:#AA80F9"/>
							<stop  offset="0.9964" style="stop-color:#6165D7"/>
						</linearGradient>
						<path style="fill:url(#SVGID_00000031189847402615141800000000867749190149499036_);" d="M2196.237,2726.362L705.269,2828.723
							c-23.31,1.6-42.254-16.79-42.254-41.081V1743.99c0-24.29,18.943-44.063,42.254-44.164l1490.969-6.428
							c19.468-0.084,35.215,17.783,35.215,39.908v950.58C2231.452,2706.01,2215.705,2725.027,2196.237,2726.362z"/>
						<path style="fill:#FFFFFF;" d="M1502.247,1656.793c0,11.076-8.239,20.081-18.414,20.114
							c-10.187,0.033-18.454-8.941-18.454-20.042s8.267-20.107,18.454-20.115
							C1494.008,1636.743,1502.247,1645.716,1502.247,1656.793z"/>
						<path style="opacity:0.48;fill:#FFFFFF;" d="M645.311,2920.176l1592.691-117.244l8.105-0.596
							c10.828-0.797,20.674-6.15,28.194-14.269c-114.612-6.272-185.799-46.945-231.72-88.971
							c-92.219-84.398-76.224-167.628-175.672-223.118c-124.038-69.213-221.569,18.488-315.694-68.042
							c-57.063-52.461-29.048-91.581-99.264-169.977c-77.77-86.83-128.402-57.642-206.56-135.79
							c-98.823-98.812-49.398-175.691-134.523-246.635c-103.269-86.066-214.64-6.407-312.944-88.947
							c-42.4-35.6-65.665-87.356-77.813-142.398h-74.793c-28.646,0-51.936,24.121-51.936,53.875v1192.063
							C593.381,2899.876,616.667,2922.281,645.311,2920.176z"/>
					</g>
					
						<linearGradient id="SVGID_00000147911249030754491130000017670452152113235378_" gradientUnits="userSpaceOnUse" x1="593.3808" y1="2924.1387" x2="3147.4397" y2="2924.1387">
						<stop  offset="0" style="stop-color:#444B8C"/>
						<stop  offset="0.9964" style="stop-color:#26264F"/>
					</linearGradient>
					<path style="fill:url(#SVGID_00000147911249030754491130000017670452152113235378_);" d="M2309.909,2795.799L593.381,2919.838
						l748.439,131.451c8.571,1.505,17.263,1.905,25.911,1.191l1779.709-146.916l-810.225-108.922
						C2328.154,2795.424,2319.015,2795.141,2309.909,2795.799z"/>
					<polygon style="fill:#26264F;" points="843.849,2920.905 2272.91,2816.1 2715.192,2875.079 1298.442,2987.11 					"/>
				</g>
			</g>
			<g>
				<g style="opacity:0.67;">
					<path style="fill:#FFFFFF;" d="M1217.948,2148.338c30.457-59.188,87.344-102.25,153.812-111.944l4.633-286.872
						c-189.948,9.471-354.919,132.529-429.237,305.609L1217.948,2148.338z"/>
					<path style="fill:#FFFFFF;" d="M1588.393,2266.038c-15.995,95.4-96.072,171.34-193.402,176.102
						c-28.858,1.412-56.361-3.576-81.258-13.757l-149.158,254.042c69.079,33.908,147.641,50.502,230.416,45.143
						c244.257-15.815,440.081-217.8,462.039-460.74L1588.393,2266.038z"/>
					<path style="fill:#FFFFFF;" d="M1118.298,2656.21l149.904-254.454c-45.053-35.658-73.911-91.731-73.911-155.942
						c0-15.515,1.699-30.685,4.896-45.332l-271.354-92.529c-14.387,47.214-22.146,97.184-22.146,148.718
						C905.687,2427.319,990.353,2573.443,1118.298,2656.21z"/>
				</g>
				<g>
					
						<linearGradient id="SVGID_00000031186151250251221000000011342438903721968281_" gradientUnits="userSpaceOnUse" x1="1680.7921" y1="1938.4995" x2="2385.7952" y2="1244.1792">
						<stop  offset="0.0036" style="stop-color:#E38DDD"/>
						<stop  offset="1" style="stop-color:#9571F6"/>
					</linearGradient>
					<path style="fill:url(#SVGID_00000031186151250251221000000011342438903721968281_);" d="M1424.665,2035.878
						c88.835,11.375,157.621,84.009,165.82,176.343l442.729,2.636c0-0.202,0.004-0.403,0.004-0.604
						c0-349.602-260.868-634.985-600.885-654.498L1424.665,2035.878z"/>
				</g>
			</g>
		</g>
		<g>
			<path style="fill:#EBEFF2;" d="M570.143,765.957v720.511c0,23.922,19.773,43.312,44.152,43.312h1482.728
				c23.47,0,42.488-19.012,42.488-42.465V780.892L570.143,765.957z"/>
			<path style="fill:#D8DEE8;" d="M2097.023,690.762L614.295,674.961c-24.379-0.26-44.152,18.921-44.152,42.841v73.829
				l1569.367,14.433V733.68C2139.511,710.226,2120.493,691.012,2097.023,690.762z"/>
			<g>
				<g>
					<g>
						<path style="fill:#D8DEE8;" d="M932.225,1151.037l81.718-280.237c123.651,40.261,213.043,154.895,213.709,289.605
							L932.225,1151.037z"/>
					</g>
					<g>
						<path style="fill:#FFFFFF;" d="M1151.277,1177.755c-4.584,64.078-35.836,120.815-82.918,159.53l-128.245-166.443
							L1151.277,1177.755z"/>
						<path style="fill:#FFFFFF;" d="M913.956,1141.349c-49.472-46.886-109.146-103.562-156.584-148.821
							c42.076-39.099,98.952-62.847,161.475-62.378c18.957,0.142,37.377,2.506,55.01,6.832L913.956,1141.349z"/>
						<path style="fill:#FFFFFF;" d="M903.638,1158.883L724.21,1287.805c-25.097-36.797-39.749-81.048-39.749-128.61
							c0-58.654,22.278-112.063,58.949-152.53c13.137,12.528,27.743,26.437,43.75,41.661
							C835.645,1094.442,884.365,1140.622,903.638,1158.883z"/>
						<path style="fill:#FFFFFF;" d="M908.837,1179.625l-3.47,210.381c-68.306-3.944-128.87-36.746-169.237-86.236L908.837,1179.625
							z"/>
						<path style="fill:#FFFFFF;" d="M928.725,1188.614l123.788,160.607c-36.147,24.884-79.85,39.911-127.114,41.11
							L928.725,1188.614z"/>
					</g>
				</g>
				<polygon style="fill:#FFFFFF;" points="2029.309,1009.551 1269.489,1004.535 1269.489,933.272 2029.309,938.969 				"/>
				<polygon style="fill:#FFFFFF;" points="2029.309,1137.271 1269.489,1133.487 1269.489,1062.224 2029.309,1066.689 				"/>
				<polygon style="fill:#FFFFFF;" points="2029.309,1264.992 1269.489,1262.438 1269.489,1191.176 2029.309,1194.41 				"/>
				<polygon style="fill:#FFFFFF;" points="2029.309,1392.712 1269.489,1391.39 1269.489,1320.127 2029.309,1322.13 				"/>
			</g>
			<path style="fill:#FFFFFF;" d="M671.518,733.267c0,10.621-8.772,19.146-19.596,19.041c-10.826-0.105-19.605-8.804-19.605-19.431
				c0-10.627,8.779-19.152,19.605-19.042C662.746,713.946,671.518,722.645,671.518,733.267z"/>
		</g>
		<g>
			<g>
				
					<rect x="2588.406" y="1673.268" transform="matrix(0.5473 -0.8369 0.8369 0.5473 -343.9742 3040.5979)" style="fill:#FFFFFF;" width="100.959" height="330.034"/>
				
					<linearGradient id="SVGID_00000018226377868787827910000004901110592911608756_" gradientUnits="userSpaceOnUse" x1="2417.8274" y1="1739.9423" x2="2626.5923" y2="1739.9423">
					<stop  offset="0" style="stop-color:#40447E"/>
					<stop  offset="0.9964" style="stop-color:#3C3B6B"/>
				</linearGradient>
				
					<circle style="fill:url(#SVGID_00000018226377868787827910000004901110592911608756_);" cx="2522.21" cy="1739.942" r="104.382"/>
				
					<linearGradient id="SVGID_00000131355641823789745760000010361896812242633383_" gradientUnits="userSpaceOnUse" x1="2626.323" y1="1899.3302" x2="2797.7358" y2="1899.3302">
					<stop  offset="0" style="stop-color:#40447E"/>
					<stop  offset="0.9964" style="stop-color:#3C3B6B"/>
				</linearGradient>
				<circle style="fill:url(#SVGID_00000131355641823789745760000010361896812242633383_);" cx="2712.03" cy="1899.33" r="85.706"/>
			</g>
			<g>
				
					<linearGradient id="SVGID_00000063604288207390049780000002603507581658468772_" gradientUnits="userSpaceOnUse" x1="2576.3416" y1="1303.1233" x2="2839.3147" y2="1303.1233">
					<stop  offset="0" style="stop-color:#FFC444"/>
					<stop  offset="0.9964" style="stop-color:#F36F56"/>
				</linearGradient>
				
					<ellipse style="fill:url(#SVGID_00000063604288207390049780000002603507581658468772_);" cx="2707.828" cy="1303.123" rx="131.486" ry="184.778"/>
				
					<linearGradient id="SVGID_00000088832050987018814630000006322782472554570376_" gradientUnits="userSpaceOnUse" x1="1599.0282" y1="1207.6936" x2="2765.4204" y2="1207.6936">
					<stop  offset="0" style="stop-color:#FCB148"/>
					<stop  offset="0.0521" style="stop-color:#FDBA46"/>
					<stop  offset="0.1424" style="stop-color:#FFC244"/>
					<stop  offset="0.3183" style="stop-color:#FFC444"/>
					<stop  offset="0.4849" style="stop-color:#FDB946"/>
					<stop  offset="0.7754" style="stop-color:#F99C4D"/>
					<stop  offset="0.8658" style="stop-color:#F8924F"/>
					<stop  offset="1" style="stop-color:#F8924F"/>
				</linearGradient>
				<path style="fill:url(#SVGID_00000088832050987018814630000006322782472554570376_);" d="M2305.961,855.378h-247.475
					c-253.751,0-459.458,205.707-459.458,459.458v0.004c0,135.404,109.767,245.17,245.17,245.17h676.051
					c135.404,0,245.171-109.767,245.171-245.171v-0.001C2765.42,1061.085,2559.713,855.378,2305.961,855.378z"/>
				
					<linearGradient id="SVGID_00000101791150520425249050000007587086954384137106_" gradientUnits="userSpaceOnUse" x1="1803.8641" y1="1833.8423" x2="2560.585" y2="1833.8423">
					<stop  offset="0" style="stop-color:#FCB148"/>
					<stop  offset="0.0521" style="stop-color:#FDBA46"/>
					<stop  offset="0.1424" style="stop-color:#FFC244"/>
					<stop  offset="0.3183" style="stop-color:#FFC444"/>
					<stop  offset="0.4849" style="stop-color:#FDB946"/>
					<stop  offset="0.7754" style="stop-color:#F99C4D"/>
					<stop  offset="0.8658" style="stop-color:#F8924F"/>
					<stop  offset="1" style="stop-color:#F8924F"/>
				</linearGradient>
				<path style="fill:url(#SVGID_00000101791150520425249050000007587086954384137106_);" d="M2262.501,2062.415h-160.555
					c-164.626,0-298.082-133.456-298.082-298.083v-0.002c0-87.846,71.213-159.059,159.059-159.059h438.602
					c87.846,0,159.06,71.214,159.06,159.06v0.001C2560.585,1928.958,2427.128,2062.415,2262.501,2062.415z"/>
				<g>
					
						<linearGradient id="SVGID_00000008855732616640941880000003813047166446297775_" gradientUnits="userSpaceOnUse" x1="1944.1243" y1="1307.3666" x2="2633.1648" y2="1307.3666">
						<stop  offset="0" style="stop-color:#444B8C"/>
						<stop  offset="0.9964" style="stop-color:#26264F"/>
					</linearGradient>
					<path style="fill:url(#SVGID_00000008855732616640941880000003813047166446297775_);" d="M2530.593,1460.906h-470.416
						c-63.75,0-116.053-48.865-116.053-109.143v-92.432c0-60.278,52.303-107.475,116.053-105.441l470.416,15.007
						c56.934,1.816,102.572,48.68,102.572,104.694v85.894C2633.165,1415.498,2587.527,1460.906,2530.593,1460.906z"/>
					<g>
						<g>
							<path style="fill:#FFFFFF;" d="M2210.897,1300.641c0,40.255-34.269,72.456-76.885,71.918
								c-43-0.543-78.143-34.155-78.143-75.069c0-40.915,35.143-73.098,78.143-71.892
								C2176.628,1226.792,2210.897,1260.386,2210.897,1300.641z"/>
							<path style="fill:#FFFFFF;" d="M2528.801,1307.103c0,38.904-32.002,70.038-71.79,69.535
								c-40.133-0.507-72.925-32.958-72.925-72.477c0-39.519,32.792-70.637,72.925-69.512
								C2496.799,1235.765,2528.801,1268.199,2528.801,1307.103z"/>
						</g>
					</g>
				</g>
				<path style="opacity:0.3;fill:#FFFFFF;" d="M2352.936,1495.564c-69.962-82.202-38.873-147.942-130.338-259.337
					c-125.849-153.275-272.662-135.931-306.29-239.887c-9.318-28.806-10.388-68.344,14.605-122.999
					c-191.682,55.29-331.885,232.012-331.885,441.495v0.004c0,135.404,109.766,245.17,245.169,245.17h589.169
					C2398.078,1540.772,2372.288,1518.302,2352.936,1495.564z"/>
				
					<linearGradient id="SVGID_00000123414243685745201850000011790216323261299126_" gradientUnits="userSpaceOnUse" x1="1533.6608" y1="1301.8378" x2="1796.6335" y2="1301.8378">
					<stop  offset="0" style="stop-color:#FFC444"/>
					<stop  offset="0.9964" style="stop-color:#F36F56"/>
				</linearGradient>
				
					<ellipse style="fill:url(#SVGID_00000123414243685745201850000011790216323261299126_);" cx="1665.147" cy="1301.838" rx="131.486" ry="184.778"/>
				
					<linearGradient id="SVGID_00000025415311792194848520000016239032763443834550_" gradientUnits="userSpaceOnUse" x1="1503.6357" y1="1301.8379" x2="1618.63" y2="1301.8379">
					<stop  offset="0" style="stop-color:#FFC444"/>
					<stop  offset="0.9964" style="stop-color:#F36F56"/>
				</linearGradient>
				
					<ellipse style="fill:url(#SVGID_00000025415311792194848520000016239032763443834550_);" cx="1561.133" cy="1301.838" rx="57.497" ry="80.8"/>
				
					<linearGradient id="SVGID_00000050630838468976253990000016269475362869792939_" gradientUnits="userSpaceOnUse" x1="1803.8641" y1="1833.8423" x2="2307.8748" y2="1833.8423">
					<stop  offset="0" style="stop-color:#FCB148"/>
					<stop  offset="0.0521" style="stop-color:#FDBA46"/>
					<stop  offset="0.1424" style="stop-color:#FFC244"/>
					<stop  offset="0.3183" style="stop-color:#FFC444"/>
					<stop  offset="0.4849" style="stop-color:#FDB946"/>
					<stop  offset="0.7754" style="stop-color:#F99C4D"/>
					<stop  offset="0.8658" style="stop-color:#F8924F"/>
					<stop  offset="1" style="stop-color:#F8924F"/>
				</linearGradient>
				<path style="opacity:0.4;fill:url(#SVGID_00000050630838468976253990000016269475362869792939_);" d="M2302.042,1898.313
					c-22.026-103.448-265.68-100.952-272.305-168.569c-5.108-52.125,134.783-103.733,152.362-110.218
					c15.034-5.546,29.956-10.24,44.73-14.256h-263.905c-87.846,0-159.059,71.213-159.059,159.059v0.002
					c0,164.627,133.455,298.083,298.082,298.083h160.555c15.427,0,30.578-1.173,45.374-3.432
					c-13.972-17.318-23.081-36.259-25.285-56.934C2277.706,1956.222,2310.577,1938.399,2302.042,1898.313z"/>
				
					<linearGradient id="SVGID_00000085934348477611671430000017980192239903200402_" gradientUnits="userSpaceOnUse" x1="2072.7163" y1="2491.9844" x2="2145.6301" y2="1927.8583">
					<stop  offset="0" style="stop-color:#FCB148"/>
					<stop  offset="0.0521" style="stop-color:#FDBA46"/>
					<stop  offset="0.1424" style="stop-color:#FFC244"/>
					<stop  offset="0.3183" style="stop-color:#FFC444"/>
					<stop  offset="0.3975" style="stop-color:#FEC045"/>
					<stop  offset="0.7095" style="stop-color:#FAA34B"/>
					<stop  offset="0.8658" style="stop-color:#F8924F"/>
					<stop  offset="1" style="stop-color:#F8924F"/>
				</linearGradient>
				
					<ellipse style="fill:url(#SVGID_00000085934348477611671430000017980192239903200402_);" cx="2186.18" cy="1614.127" rx="253.569" ry="30.701"/>
			</g>
			<g>
				
					<rect x="1920.664" y="1673.268" transform="matrix(0.5473 -0.8369 0.8369 0.5473 -646.2288 2481.7607)" style="fill:#FFFFFF;" width="100.959" height="330.034"/>
				
					<linearGradient id="SVGID_00000083089154186056483540000005183961038428231330_" gradientUnits="userSpaceOnUse" x1="1750.0844" y1="1739.9423" x2="1958.8492" y2="1739.9423">
					<stop  offset="0" style="stop-color:#40447E"/>
					<stop  offset="0.9964" style="stop-color:#3C3B6B"/>
				</linearGradient>
				
					<circle style="fill:url(#SVGID_00000083089154186056483540000005183961038428231330_);" cx="1854.467" cy="1739.942" r="104.382"/>
				<polygon style="fill:#FFFFFF;" points="2092.896,1870.814 2334.666,1870.814 2325.071,1970.853 2088.1,1962.917 				"/>
				
					<linearGradient id="SVGID_00000152944941553374436000000003302922621405279163_" gradientUnits="userSpaceOnUse" x1="1958.5804" y1="1899.3302" x2="2129.9934" y2="1899.3302">
					<stop  offset="0" style="stop-color:#40447E"/>
					<stop  offset="0.9964" style="stop-color:#3C3B6B"/>
				</linearGradient>
				
					<circle style="fill:url(#SVGID_00000152944941553374436000000003302922621405279163_);" cx="2044.287" cy="1899.33" r="85.706"/>
				
					<linearGradient id="SVGID_00000031885806553471802030000005100385331319746219_" gradientUnits="userSpaceOnUse" x1="2255.9944" y1="1903.2018" x2="2386.4238" y2="1903.2018">
					<stop  offset="0" style="stop-color:#40447E"/>
					<stop  offset="0.9964" style="stop-color:#3C3B6B"/>
				</linearGradient>
				<path style="fill:url(#SVGID_00000031885806553471802030000005100385331319746219_);" d="M2355.75,1868.039
					c-14.652-8.201-35.341-13.975-64.454-12.913c-13.827,0.504-25.252,11.006-26.871,24.747l-8.43,71.531h124.722l4.07-17.092
					C2390.998,1908.224,2379.15,1881.138,2355.75,1868.039z"/>
			</g>
			<g>
				
					<linearGradient id="SVGID_00000107562589948351154780000018318266556313980317_" gradientUnits="userSpaceOnUse" x1="2093.9089" y1="1976.9889" x2="2584.3728" y2="1976.9889">
					<stop  offset="0" style="stop-color:#AA80F9"/>
					<stop  offset="0.9964" style="stop-color:#6165D7"/>
				</linearGradient>
				<path style="fill:url(#SVGID_00000107562589948351154780000018318266556313980317_);" d="M2575.978,1953.102l-449.925-7.773
					c-6.191-0.106-12.042,2.831-15.656,7.859l-13.722,19.099c-6.832,9.508-0.255,22.785,11.449,23.111l476.248,13.254
					L2575.978,1953.102z"/>
				
					<linearGradient id="SVGID_00000114047721971777015740000006144651179507967104_" gradientUnits="userSpaceOnUse" x1="2381.5818" y1="1863.5123" x2="3073.9363" y2="1863.5123">
					<stop  offset="0" style="stop-color:#AA80F9"/>
					<stop  offset="0.9964" style="stop-color:#6165D7"/>
				</linearGradient>
				<path style="fill:url(#SVGID_00000114047721971777015740000006144651179507967104_);" d="M3058.924,1734.139l-463.928-21.599
					c-13.727-0.64-26.774,6-34.337,17.474l-179.077,271.702l490.627,12.797c13.466,0.352,26.202-6.113,33.868-17.19l165.044-238.537
					C3078.146,1748.631,3071.26,1734.713,3058.924,1734.139z"/>
				
					<linearGradient id="SVGID_00000121248687475595204530000004880710585537576087_" gradientUnits="userSpaceOnUse" x1="2381.5818" y1="1863.5126" x2="2916.9443" y2="1863.5126">
					<stop  offset="0" style="stop-color:#AA80F9"/>
					<stop  offset="0.9964" style="stop-color:#6165D7"/>
				</linearGradient>
				<path style="opacity:0.3;fill:url(#SVGID_00000121248687475595204530000004880710585537576087_);" d="M2560.658,1730.015
					c7.564-11.475,20.611-18.115,34.338-17.475l10.166,0.473c0.528,15.058,4.214,29.042,12.637,40.692
					c26.293,36.372,75.164,18.232,108.135,57.062c36.218,42.655-2.835,88.01,29.451,127.615
					c33.981,41.685,95.231,13.614,161.56,43.232l-10.869,15.708c-7.665,11.079-20.4,17.543-33.866,17.193l-490.627-12.798
					L2560.658,1730.015z"/>
			</g>
		</g>
		<g>
			<g>
				<path style="opacity:0.68;fill:#FFFFFF;" d="M1971.143,2310.484v601.046c0,19.955,14.915,35.347,33.272,34.383l1056.673-55.483
					c15.831-0.831,28.639-16.479,28.639-34.953V2299.04L1971.143,2310.484z"/>
				
					<linearGradient id="SVGID_00000020371136996095823490000007506638345510325929_" gradientUnits="userSpaceOnUse" x1="2622.5012" y1="2138.6162" x2="2123.4456" y2="2954.4644">
					<stop  offset="0" style="stop-color:#FF9085"/>
					<stop  offset="1" style="stop-color:#FB6FBB"/>
				</linearGradient>
				<path style="fill:url(#SVGID_00000020371136996095823490000007506638345510325929_);" d="M3061.089,2228.55l-1056.673,5.462
					c-18.357,0.095-33.272,16.348-33.272,36.303v61.587l1118.584-13.034v-57.017
					C3089.727,2243.377,3076.92,2228.469,3061.089,2228.55z"/>
				<path style="fill:#FFFFFF;" d="M2047.375,2281.736c0,8.827-6.574,16.044-14.69,16.12c-8.125,0.077-14.719-7.031-14.719-15.874
					c0-8.844,6.594-16.062,14.719-16.121C2040.801,2265.802,2047.375,2272.909,2047.375,2281.736z"/>
			</g>
			<g>
				<polygon style="fill:#FFFFFF;" points="2199.281,2857.9 2116.135,2861.83 2116.135,2415.06 2199.281,2413.618 				"/>
				
					<linearGradient id="SVGID_00000137103468183012619680000014148061801265799322_" gradientUnits="userSpaceOnUse" x1="2206.2339" y1="2602.3716" x2="2090.863" y2="2962.4089">
					<stop  offset="0" style="stop-color:#FF9085"/>
					<stop  offset="1" style="stop-color:#FB6FBB"/>
				</linearGradient>
				<polygon style="fill:url(#SVGID_00000137103468183012619680000014148061801265799322_);" points="2199.281,2857.9 
					2116.135,2861.83 2116.135,2649.713 2199.281,2646.965 				"/>
				<polygon style="fill:#FFFFFF;" points="2313.435,2852.504 2231.565,2856.374 2231.565,2413.059 2313.435,2411.639 				"/>
				
					<linearGradient id="SVGID_00000171690241113096417910000000956285556032294817_" gradientUnits="userSpaceOnUse" x1="2299.5891" y1="2717.2847" x2="2235.2126" y2="2918.1841">
					<stop  offset="0" style="stop-color:#FF9085"/>
					<stop  offset="1" style="stop-color:#FB6FBB"/>
				</linearGradient>
				<polygon style="fill:url(#SVGID_00000171690241113096417910000000956285556032294817_);" points="2313.435,2852.504 
					2231.565,2856.374 2231.565,2751.135 2313.435,2747.847 				"/>
				<polygon style="fill:#FFFFFF;" points="2425.846,2847.191 2345.225,2851.002 2345.225,2411.088 2425.846,2409.69 				"/>
				
					<linearGradient id="SVGID_00000059276205851039736760000009107750099052176038_" gradientUnits="userSpaceOnUse" x1="2402.4644" y1="2768.8552" x2="2362.2554" y2="2894.3347">
					<stop  offset="0" style="stop-color:#FF9085"/>
					<stop  offset="1" style="stop-color:#FB6FBB"/>
				</linearGradient>
				<polygon style="fill:url(#SVGID_00000059276205851039736760000009107750099052176038_);" points="2425.846,2847.191 
					2345.225,2851.002 2345.225,2796.176 2425.846,2792.666 				"/>
				<polygon style="fill:#FFFFFF;" points="2536.555,2841.958 2457.154,2845.711 2457.154,2409.148 2536.555,2407.771 				"/>
				
					<linearGradient id="SVGID_00000151513352744288268210000000120975716819978677_" gradientUnits="userSpaceOnUse" x1="2571.0559" y1="2441.2766" x2="2394.6233" y2="2991.8694">
					<stop  offset="0" style="stop-color:#FF9085"/>
					<stop  offset="1" style="stop-color:#FB6FBB"/>
				</linearGradient>
				<polygon style="fill:url(#SVGID_00000151513352744288268210000000120975716819978677_);" points="2536.555,2841.958 
					2457.154,2845.711 2457.154,2503.714 2536.555,2501.823 				"/>
				<polygon style="fill:#FFFFFF;" points="2645.6,2836.804 2567.391,2840.5 2567.391,2407.236 2645.6,2405.881 				"/>
				
					<linearGradient id="SVGID_00000002346902258687164110000006819707837458116287_" gradientUnits="userSpaceOnUse" x1="2672.3918" y1="2482.5876" x2="2515.7153" y2="2971.5276">
					<stop  offset="0" style="stop-color:#FF9085"/>
					<stop  offset="1" style="stop-color:#FB6FBB"/>
				</linearGradient>
				<polygon style="fill:url(#SVGID_00000002346902258687164110000006819707837458116287_);" points="2645.6,2836.804 
					2567.391,2840.5 2567.391,2539.658 2645.6,2537.587 				"/>
				<polygon style="fill:#FFFFFF;" points="2753.017,2831.726 2675.974,2835.368 2675.974,2405.354 2753.017,2404.018 				"/>
				
					<linearGradient id="SVGID_00000157305106874005996360000017188408445089772689_" gradientUnits="userSpaceOnUse" x1="2793.6245" y1="2402.864" x2="2605.4795" y2="2990.0073">
					<stop  offset="0" style="stop-color:#FF9085"/>
					<stop  offset="1" style="stop-color:#FB6FBB"/>
				</linearGradient>
				<polygon style="fill:url(#SVGID_00000157305106874005996360000017188408445089772689_);" points="2753.017,2831.726 
					2675.974,2835.368 2675.974,2467.878 2753.017,2466.207 				"/>
				<polygon style="fill:#FFFFFF;" points="2858.843,2826.725 2782.94,2830.312 2782.94,2403.5 2858.843,2402.183 				"/>
				
					<linearGradient id="SVGID_00000090282637275366013840000001314506165560403636_" gradientUnits="userSpaceOnUse" x1="2878.8984" y1="2516.4133" x2="2740.9929" y2="2946.7747">
					<stop  offset="0" style="stop-color:#FF9085"/>
					<stop  offset="1" style="stop-color:#FB6FBB"/>
				</linearGradient>
				<polygon style="fill:url(#SVGID_00000090282637275366013840000001314506165560403636_);" points="2858.843,2826.725 
					2782.94,2830.312 2782.94,2568.145 2858.843,2565.953 				"/>
				<polygon style="fill:#FFFFFF;" points="2963.114,2821.796 2888.325,2825.331 2888.325,2401.672 2963.114,2400.376 				"/>
				
					<linearGradient id="SVGID_00000125596947165508109370000012846190911360181169_" gradientUnits="userSpaceOnUse" x1="2960.6533" y1="2641.0024" x2="2877.6233" y2="2900.114">
					<stop  offset="0" style="stop-color:#FF9085"/>
					<stop  offset="1" style="stop-color:#FB6FBB"/>
				</linearGradient>
				<polygon style="fill:url(#SVGID_00000125596947165508109370000012846190911360181169_);" points="2963.114,2821.796 
					2888.325,2825.331 2888.325,2678.245 2963.114,2675.487 				"/>
			</g>
		</g>
	</g>
</g>
</svg>
