<?xml version="1.0" encoding="UTF-8"?>
<svg xmlns="http://www.w3.org/2000/svg" xmlns:xlink="http://www.w3.org/1999/xlink" width="2835" height="2835" viewBox="0 0 2835 2835">
<path fill-rule="evenodd" fill="rgb(100%, 100%, 100%)" fill-opacity="1" d="M 0 0.351562 L 2834.648438 0.351562 L 2834.648438 2835 L 0 2835 L 0 0.351562 "/>
<path fill-rule="evenodd" fill="rgb(93.75%, 43.530273%, 29.026794%)" fill-opacity="1" d="M 1001.660156 396.351562 L 2190.78125 396.351562 L 2190.78125 2237.003906 L 643.863281 2237.003906 L 643.863281 753.578125 C 643.863281 557.109375 804.878906 396.351562 1001.660156 396.351562 "/>
<path fill-rule="evenodd" fill="rgb(83.201599%, 27.050781%, 11.767578%)" fill-opacity="1" d="M 871.324219 2237.003906 L 643.863281 2237.003906 L 643.863281 753.578125 C 643.863281 602.941406 738.492188 473.320312 871.324219 421.019531 L 871.324219 2237.003906 "/>
<path fill-rule="evenodd" fill="rgb(90.234375%, 36.473083%, 21.580505%)" fill-opacity="1" d="M 2190.78125 2439 L 2190.78125 2079.398438 L 823.949219 2079.398438 C 724.902344 2079.398438 643.863281 2160.324219 643.863281 2259.199219 C 643.863281 2357.332031 723.644531 2437.75 821.632812 2439 L 2190.78125 2439 "/>
<path fill-rule="evenodd" fill="rgb(100%, 100%, 100%)" fill-opacity="1" d="M 2077.648438 2131.675781 L 823.949219 2131.675781 C 753.808594 2131.675781 696.226562 2189.171875 696.226562 2259.199219 C 696.226562 2329.253906 753.808594 2386.722656 823.949219 2386.722656 L 2077.648438 2386.722656 L 2077.648438 2131.675781 "/>
<path fill-rule="evenodd" fill="rgb(98.826599%, 70.506287%, 31.37207%)" fill-opacity="1" d="M 1800.5 678.328125 L 1800.5 396.351562 L 1969.890625 396.351562 L 1969.890625 678.328125 L 1885.179688 623.148438 L 1800.5 678.328125 "/>
</svg>
