<svg width="52" height="52" viewBox="0 0 52 52" fill="none" xmlns="http://www.w3.org/2000/svg">
<path d="M47.9448 27.5711C47.8974 28.2421 47.82 28.9047 47.7138 29.5577C47.6058 30.2221 47.468 30.8764 47.3019 31.5193C47.4205 31.5385 47.541 31.5525 47.6632 31.5612C49.8669 31.7167 51.7794 30.0563 51.9348 27.8526C51.9781 27.2401 52 26.6223 52 26C52 25.3777 51.9781 24.7599 51.9348 24.1474C51.7794 21.9437 49.8669 20.2833 47.6632 20.4388C47.541 20.4475 47.4205 20.4615 47.3019 20.4807C47.468 21.1236 47.6058 21.7779 47.7138 22.4423C47.82 23.0953 47.8974 23.7579 47.9448 24.4289C47.9814 24.9478 48 25.4718 48 26C48 26.5282 47.9814 27.0522 47.9448 27.5711Z" fill="#E6A229"/>
<path d="M41.9763 41.6427C41.8753 41.5742 41.7784 41.5018 41.6856 41.426C42.1541 40.9497 42.6011 40.4521 43.025 39.9348C43.4472 39.4196 43.8465 38.8848 44.2213 38.3321C44.8071 37.4682 45.3331 36.5604 45.7933 35.6148C46.0841 35.0173 46.3487 34.4046 46.5854 33.7783C46.8207 33.1561 47.0285 32.5204 47.2074 31.8728C47.3206 31.9157 47.4328 31.9641 47.5437 32.0181C49.5301 32.9848 50.3567 35.3788 49.39 37.3652C48.8458 38.4835 48.224 39.5564 47.5319 40.577C46.2921 42.4054 43.8047 42.8825 41.9763 41.6427Z" fill="#E6A229"/>
<path d="M32.0181 47.5437C31.9641 47.4328 31.9157 47.3206 31.8728 47.2074C32.5204 47.0285 33.1561 46.8207 33.7783 46.5854C34.4046 46.3487 35.0173 46.0841 35.6148 45.7933C36.5604 45.3331 37.4682 44.8071 38.3321 44.2213C38.8848 43.8465 39.4196 43.4472 39.9348 43.025C40.4521 42.6011 40.9497 42.1541 41.426 41.6856C41.5018 41.7784 41.5742 41.8753 41.6427 41.9763C42.8825 43.8047 42.4054 46.2921 40.577 47.5319C39.5564 48.224 38.4835 48.8458 37.3652 49.39C35.3788 50.3567 32.9848 49.5301 32.0181 47.5437Z" fill="#E6A229"/>
<path d="M20.4388 47.6632C20.4475 47.541 20.4615 47.4205 20.4807 47.3019C21.1236 47.468 21.7779 47.6058 22.4423 47.7138C23.0953 47.82 23.7579 47.8974 24.4289 47.9448C24.9478 47.9814 25.4718 48 26 48C26.5282 48 27.0522 47.9814 27.5711 47.9448C28.2421 47.8974 28.9047 47.82 29.5577 47.7138C30.2221 47.6058 30.8764 47.468 31.5193 47.3019C31.5385 47.4205 31.5525 47.541 31.5612 47.6632C31.7167 49.8669 30.0563 51.7794 27.8526 51.9348C27.2401 51.9781 26.6223 52 26 52C25.3777 52 24.7599 51.9781 24.1474 51.9348C21.9437 51.7794 20.2833 49.8669 20.4388 47.6632Z" fill="#E6A229"/>
<path d="M10.3573 41.9763C10.4258 41.8753 10.4982 41.7784 10.574 41.6856C11.0503 42.1541 11.5479 42.6011 12.0652 43.025C12.5804 43.4472 13.1152 43.8465 13.6679 44.2213C14.5318 44.8071 15.4396 45.3331 16.3852 45.7933C16.9827 46.0841 17.5954 46.3487 18.2217 46.5854C18.8439 46.8207 19.4796 47.0285 20.1272 47.2074C20.0843 47.3206 20.0359 47.4328 19.9819 47.5437C19.0152 49.5301 16.6212 50.3567 14.6348 49.39C13.5165 48.8458 12.4436 48.224 11.423 47.5319C9.59456 46.2921 9.11746 43.8047 10.3573 41.9763Z" fill="#E6A229"/>
<path d="M4.45629 32.0181C4.56722 31.9641 4.67942 31.9157 4.79257 31.8728C4.97152 32.5204 5.17934 33.1561 5.41456 33.7783C5.65134 34.4046 5.91587 35.0173 6.20667 35.6148C6.66688 36.5604 7.19287 37.4682 7.77869 38.3321C8.1535 38.8848 8.55281 39.4196 8.97505 39.9348C9.39891 40.4521 9.84587 40.9497 10.3144 41.426C10.2216 41.5018 10.1247 41.5742 10.0237 41.6427C8.19526 42.8825 5.70795 42.4054 4.46808 40.577C3.77599 39.5564 3.15422 38.4835 2.60998 37.3652C1.64327 35.3788 2.46989 32.9848 4.45629 32.0181Z" fill="#E6A229"/>
<path d="M4.33677 20.4388C4.45895 20.4475 4.57946 20.4615 4.69809 20.4807C4.53198 21.1236 4.39421 21.7779 4.28619 22.4423C4.18001 23.0953 4.10258 23.7579 4.05523 24.4289C4.01862 24.9478 4 25.4718 4 26C4 26.5282 4.01862 27.0522 4.05523 27.5711C4.10258 28.2421 4.18001 28.9047 4.28619 29.5577C4.39421 30.2221 4.53198 30.8764 4.69809 31.5193C4.57946 31.5385 4.45895 31.5525 4.33677 31.5612C2.13311 31.7167 0.220642 30.0563 0.0651534 27.8526C0.0219326 27.2401 0 26.6223 0 26C0 25.3777 0.0219326 24.7599 0.0651536 24.1474C0.220642 21.9437 2.13311 20.2833 4.33677 20.4388Z" fill="#E6A229"/>
<path d="M10.0237 10.3573C10.1247 10.4258 10.2216 10.4982 10.3144 10.574C9.84587 11.0503 9.3989 11.5479 8.97505 12.0652C8.55281 12.5804 8.1535 13.1152 7.77869 13.6679C7.19287 14.5318 6.66688 15.4396 6.20667 16.3852C5.91587 16.9827 5.65134 17.5954 5.41456 18.2217C5.17934 18.8439 4.97152 19.4796 4.79257 20.1272C4.67942 20.0843 4.56722 20.0359 4.45629 19.9819C2.46989 19.0152 1.64327 16.6212 2.60998 14.6348C3.15422 13.5165 3.77599 12.4436 4.46808 11.423C5.70795 9.59456 8.19526 9.11746 10.0237 10.3573Z" fill="#E6A229"/>
<path d="M19.9819 4.45629C20.0359 4.56722 20.0843 4.67942 20.1272 4.79257C19.4796 4.97152 18.8439 5.17934 18.2217 5.41456C17.5954 5.65134 16.9827 5.91587 16.3852 6.20667C15.4396 6.66688 14.5318 7.19287 13.6679 7.77869C13.1152 8.1535 12.5804 8.55281 12.0652 8.97505C11.5479 9.39891 11.0503 9.84587 10.574 10.3144C10.4982 10.2216 10.4258 10.1247 10.3573 10.0237C9.11746 8.19526 9.59456 5.70795 11.423 4.46808C12.4436 3.77599 13.5165 3.15422 14.6348 2.60998C16.6212 1.64327 19.0152 2.46989 19.9819 4.45629Z" fill="#E6A229"/>
<path d="M31.5612 4.33677C31.5525 4.45895 31.5385 4.57946 31.5193 4.69809C30.8764 4.53198 30.2221 4.39421 29.5577 4.28619C28.9047 4.18001 28.2421 4.10258 27.5711 4.05523C27.0522 4.01862 26.5282 4 26 4C25.4718 4 24.9478 4.01862 24.4289 4.05523C23.7579 4.10258 23.0953 4.18001 22.4423 4.28619C21.7779 4.39421 21.1236 4.53198 20.4807 4.69809C20.4615 4.57946 20.4475 4.45895 20.4388 4.33677C20.2833 2.13311 21.9437 0.220642 24.1474 0.0651534C24.7599 0.0219326 25.3777 0 26 0C26.6223 0 27.2401 0.0219326 27.8526 0.0651536C30.0563 0.220642 31.7167 2.13311 31.5612 4.33677Z" fill="#E6A229"/>
<path d="M41.6427 10.0237C41.5742 10.1247 41.5018 10.2216 41.426 10.3144C40.9497 9.84587 40.4521 9.3989 39.9348 8.97505C39.4196 8.55281 38.8848 8.1535 38.3321 7.77869C37.4682 7.19287 36.5604 6.66688 35.6148 6.20667C35.0173 5.91587 34.4046 5.65134 33.7783 5.41456C33.1561 5.17934 32.5204 4.97152 31.8728 4.79257C31.9157 4.67942 31.9641 4.56722 32.0181 4.45629C32.9848 2.46989 35.3788 1.64327 37.3652 2.60998C38.4835 3.15422 39.5564 3.77599 40.577 4.46808C42.4054 5.70795 42.8825 8.19526 41.6427 10.0237Z" fill="#E6A229"/>
<path d="M41.9763 10.3573C41.8753 10.4258 41.7784 10.4982 41.6856 10.574C42.1541 11.0503 42.6011 11.5479 43.025 12.0652C43.4472 12.5804 43.8465 13.1152 44.2213 13.6679C44.8071 14.5318 45.3331 15.4396 45.7933 16.3852C46.0841 16.9827 46.3487 17.5954 46.5854 18.2217C46.8207 18.8439 47.0285 19.4796 47.2074 20.1272C47.3206 20.0843 47.4328 20.0359 47.5437 19.9819C49.5301 19.0152 50.3567 16.6212 49.39 14.6348C48.8458 13.5165 48.224 12.4436 47.5319 11.423C46.2921 9.59456 43.8047 9.11746 41.9763 10.3573Z" fill="#E6A229"/>
<path d="M22.3184 29.0283C22.3125 29.0205 22.3086 29.0107 22.3086 29C22.3086 28.9854 22.3164 28.9717 22.3281 28.9639C23.166 28.4521 23.7637 27.8408 24.1211 27.1299C24.5039 26.4141 24.6953 25.4629 24.6953 24.2773V22.0547C24.6953 21.502 25.1426 21.0547 25.6953 21.0547H29.3281C29.8809 21.0547 30.3281 21.502 30.3281 22.0547V27.9424C30.3281 28.3535 30.082 28.7061 29.7285 28.8604C29.6055 28.9131 29.4707 28.9424 29.3281 28.9424H25.5547L22.3516 29.042C22.3379 29.043 22.3262 29.0371 22.3184 29.0283Z" fill="#E6A229"/>
<path fill-rule="evenodd" clip-rule="evenodd" d="M46 26C46 37.0457 37.0457 46 26 46C14.9543 46 6 37.0457 6 26C6 14.9543 14.9543 6 26 6C37.0457 6 46 14.9543 46 26ZM26 16C27.1055 16 28 15.1045 28 14C28 12.8955 27.1055 12 26 12C25.1094 12 24.3555 12.5801 24.0957 13.3828C24.0332 13.5771 24 13.7842 24 14C24 14.6631 24.3223 15.251 24.8203 15.6152C25.1504 15.8574 25.5586 16 26 16ZM16.2598 31.7139C16.2598 31.8994 16.3125 32.0811 16.4082 32.2383L21.875 41.0947C22.1797 41.585 22.834 41.7188 23.3047 41.3857L24.5723 40.4893C25 40.1865 25.123 39.6055 24.8516 39.1562L22.2754 34.8838L20.4707 32.4131C20.4648 32.4043 20.4609 32.3945 20.4609 32.3838C20.4609 32.3555 20.4844 32.333 20.5117 32.333H29.3281C29.8809 32.333 30.3281 32.7803 30.3281 33.333V40.4297C30.3281 40.7881 30.5176 41.1025 30.8027 41.2793C30.9551 41.375 31.1348 41.4297 31.3281 41.4297H33.084C33.6367 41.4297 34.084 40.9814 34.084 40.4297V22.0547C34.084 21.502 34.5332 21.0547 35.084 21.0547H37C37.5527 21.0547 38 20.6064 38 20.0547V19C38 18.4473 37.5527 18 37 18H15C14.4473 18 14 18.4473 14 19V20.0547C14 20.3457 14.125 20.6074 14.3242 20.79C14.502 20.9541 14.7383 21.0547 15 21.0547H19.748C20.3008 21.0547 20.748 21.502 20.748 22.0547V24.5117C20.748 25.7871 20.4395 26.7607 19.8242 27.4326C19.209 28.0811 18.3613 28.4053 17.2793 28.4053H17.2598C16.9395 28.4053 16.6543 28.5557 16.4707 28.7891C16.3379 28.959 16.2598 29.1729 16.2598 29.4053V31.7139Z" fill="#E6A229"/>
</svg>
